<?xml version="1.0" encoding="utf-8"?>
<svg width="1024px" height="1024px" viewBox="0 0 1024 1024" xmlns="http://www.w3.org/2000/svg" xmlns:bx="https://boxy-svg.com">
  <defs>
    <bx:export>
      <bx:file format="png" path="AppIcon-16x16.png" width="16" height="16"/>
      <bx:file format="png" path="AppIcon-16x16@2x.png" width="32" height="32"/>
      <bx:file format="png" path="AppIcon-32x32.png" width="32" height="32"/>
      <bx:file format="png" path="AppIcon-32x32@2x.png" width="64" height="64"/>
      <bx:file format="png" path="AppIcon-128x128.png" width="128" height="128"/>
      <bx:file format="png" path="AppIcon-128x128@2x.png" width="256" height="256"/>
      <bx:file format="png" path="AppIcon-256x256.png" width="256" height="256"/>
      <bx:file format="png" path="AppIcon-256x256@2x.png" width="512" height="512"/>
      <bx:file format="png" path="AppIcon-512x512.png" width="512" height="512"/>
      <bx:file format="png" path="AppIcon-512x512@2x.png" width="1024" height="1024"/>
    </bx:export>
    <bx:guide x="0" y="100" angle="90"/>
    <bx:guide x="0" y="920" angle="90"/>
    <bx:guide x="100" y="0" angle="0"/>
    <bx:guide x="920" y="0" angle="0"/>
    <radialGradient gradientUnits="userSpaceOnUse" cx="393.031" cy="279.155" r="305.528" id="gradient-0" gradientTransform="matrix(0.764007, 0.764007, -0.82113, 0.82113, 228.665267, -348.353327)">
      <stop offset="0" style="stop-color: rgb(253, 214, 117);"/>
      <stop offset="0.221" style="stop-color: rgb(228, 133, 30);"/>
      <stop offset="1" style="stop-color: rgb(155, 71, 1);"/>
    </radialGradient>
    <radialGradient gradientUnits="userSpaceOnUse" cx="402.386" cy="755.861" r="114.892" id="gradient-1" gradientTransform="matrix(1.277844, -0.413563, 1.069111, 3.303392, -1016.772843, -1470.89637)">
      <stop offset="0" style="stop-color: rgb(158, 63, 1);"/>
      <stop offset="1" style="stop-color: rgb(217, 127, 29);"/>
    </radialGradient>
    <radialGradient gradientUnits="userSpaceOnUse" cx="647.973" cy="600.198" r="234.456" id="gradient-3" gradientTransform="matrix(2.392104, -0.827581, 0.287721, 0.831649, -1166.673989, 601.194279)">
      <stop offset="0" style="stop-color: rgb(254, 185, 62);"/>
      <stop offset="1" style="stop-color: rgb(148, 64, 1);"/>
    </radialGradient>
    <radialGradient gradientUnits="userSpaceOnUse" cx="701.975" cy="707.224" r="215.443" id="gradient-2" gradientTransform="matrix(2.78294, -0.375769, 0.15539, 1.15081, -1451.755995, 133.949324)">
      <stop offset="0" style="stop-color: rgb(234, 153, 55);"/>
      <stop offset="1" style="stop-color: rgb(166, 77, 2);"/>
    </radialGradient>
  </defs>
  <path id="path3" stroke="#2d0700" stroke-width="6px" d="M 247.116 544.191 C 193.008 523.785 159.703 513.379 133.995 478.638 C 124.436 410.262 136.791 177.108 312.619 124.318 C 478.824 74.416 665.694 107.181 734.768 169.522 C 831.543 256.864 843.597 402.54 840.915 474.189 L 818.472 475.164 C 826.508 353.937 782.255 119.327 550.791 147.424 C 364.326 170.06 246.034 283.717 247.116 544.191 Z" style="fill: url(&quot;#gradient-0&quot;); stroke-linecap: round; stroke-linejoin: round; stroke-width: 6.968;"/>
  <path id="path4" d="M 133.33 476.182 L 133.186 532.721 L 124.419 627.715 L 122.855 742.063 C 129.196 781.408 145.608 807.423 174.445 830.944 C 219.812 867.947 357.32 906.714 391.301 909.161 C 385.492 898.737 356.083 891.803 353.814 848.282 C 351.545 804.762 348.46 650.429 361.472 629.556 C 335.717 595.267 282.623 561.776 246.964 544.243 C 209.15 529.426 153.351 513.21 133.33 476.182 Z" style="stroke-linecap: round; stroke-linejoin: round; stroke-width: 6.968; stroke: rgb(45, 7, 0); fill: url(&quot;#gradient-1&quot;);"/>
  <g>
    <path id="path-1" d="M 818.472 475.164 C 826.508 353.937 782.255 119.327 550.791 147.424 C 364.326 170.06 246.034 283.717 247.116 544.191" style="fill: none; stroke: rgb(156, 104, 67); stroke-linejoin: round; stroke-width: 23.225; stroke-linecap: round;"/>
    <path id="path-2" d="M 818.472 475.164 C 826.508 353.937 782.255 119.327 550.791 147.424 C 364.326 170.06 246.034 283.717 247.116 544.191" style="fill: none; stroke-linejoin: round; stroke-linecap: round; stroke: rgb(230, 209, 200); stroke-dasharray: 5, 15; stroke-width: 13.935;"/>
  </g>
  <g>
    <path style="stroke-width: 6.968; stroke-linejoin: round; stroke-linecap: round; stroke: rgb(45, 7, 0); fill: url(&quot;#gradient-3&quot;);" d="M 354.625 657.858 C 356.11 632.09 368.423 613.836 376.006 606.226 C 397.493 580.326 430.812 569.714 458.764 559.12 C 488.919 547.69 665.237 494.836 837.972 487.374 C 875.26 485.764 895.585 507.895 896.205 532.513 C 896.636 549.642 895.367 557.62 891.161 592.513 C 883.29 657.811 889.266 762.344 881.775 785.706 C 872.069 824.132 839.485 844.32 812.869 852.981 C 789.964 863.976 569.766 914.648 501.678 919.111 C 469.174 922.09 412.473 917.073 396.303 911.566 C 368.754 901.786 354.935 870.127 354.321 852.429 C 353.63 832.528 348.74 759.966 354.625 657.858 Z"/>
    <path style="stroke-linecap: round; stroke-linejoin: round; stroke: rgb(45, 7, 0); stroke-width: 6.968; fill: url(&quot;#gradient-2&quot;);" d="M 396.999 854.914 C 401.347 828.611 402.853 737.664 400.693 703.694 C 400.76 674.989 417.804 651.32 442.114 643.106 C 489.536 624.324 753.294 597.744 829.599 578.803 C 850.349 573.653 878.572 569.592 890.817 597.446 C 894.099 604.013 896.431 611.081 894.969 618.725 C 897.551 622.723 898.253 628.126 896.056 632.225 C 898.761 673.955 896.027 739.817 893.503 763.068 C 892.17 775.346 892.992 823.893 838.881 854.17 C 768.54 885.612 610.588 918.588 471.442 919.254 C 425.623 916.86 397.064 889.666 396.999 854.914 Z"/>
    <g>
      <path style="fill: none; stroke-linejoin: round; stroke-linecap: round; stroke-width: 22.064; stroke: rgb(156, 104, 67);" d="M 411.076 693.419 L 445.496 696.566 C 535.825 697.748 757.004 672.202 861.177 639.371 C 874.784 635.758 878.815 633.69 887.703 626.578"/>
      <path style="fill: none; stroke-linejoin: round; stroke-linecap: round; stroke: rgb(230, 209, 199); stroke-dasharray: 3, 10; stroke-width: 6.968;" d="M 411.076 689.935 L 445.496 693.082 C 535.825 694.264 757.004 668.718 861.177 635.887 C 874.784 632.274 878.815 630.206 887.703 623.095"/>
      <path style="fill: none; stroke-linejoin: round; stroke-linecap: round; stroke: rgb(230, 209, 199); stroke-dasharray: 3, 10; stroke-width: 6.968; stroke-dashoffset: -7px;" d="M 411.076 698.064 L 445.496 701.211 C 535.825 702.393 757.004 676.847 861.177 644.016 C 874.784 640.403 878.815 638.335 887.703 631.223"/>
    </g>
  </g>
</svg>