<?xml version="1.0" encoding="utf-8"?>
<svg xmlns="http://www.w3.org/2000/svg" viewBox="0 0 127 127">
  <g id="Regular-M" transform="matrix(1, 0, 0, 1, -6.505952, 103.403595)">
    <path d="M83.0713-67.0949L83.0713-60.2458L91.5753-60.2458C95.1393-60.2458 97.8902-59.0515 100.31-56.0091L118.432-33.1981C119.209-32.1304 118.867-30.7416 117.323-30.7416L85.065-30.7416C82.5768-30.7416 81.3433-28.8141 81.3433-26.7917L81.3433-26.6249C81.3433-20.9472 76.9453-14.9659 70.0265-14.9659C63.1182-14.9659 58.6684-20.9472 58.6684-26.6249L58.6684-26.7917C58.6684-28.8141 57.4867-30.7416 54.9467-30.7416L22.7508-30.7416C21.155-30.7416 20.8128-32.1304 21.6419-33.1981L39.7539-56.0091C42.1733-59.0515 44.8725-60.2458 48.4364-60.2458L56.9922-60.2458L56.9922-67.0949L48.9971-67.0949C40.3553-67.0949 37.8219-64.9901 32.0969-57.9471L15.2501-37.0846C13.0935-34.3884 12.4609-32.2012 12.4609-27.8153L12.4609 1.08509C12.4609 11.1619 17.5986 16.2478 27.7789 16.2478L112.233 16.2478C122.465 16.2478 127.551 11.1408 127.551 1.08509L127.551-27.8153C127.551-32.2012 126.97-34.3884 124.813-37.0846L107.915-57.9471C102.19-64.9901 99.7081-67.0949 91.0146-67.0949ZM27.9035 8.34255C23.0272 8.34255 20.3144 5.78505 20.3144 0.701714L20.3144-23.582L51.2597-23.582C52.4605-14.4624 60.123-7.75463 70.0265-7.75463C79.9405-7.75463 87.5512-14.4835 88.7521-23.582L119.697-23.582L119.697 0.701714C119.697 5.78505 116.942 8.34255 112.108 8.34255ZM53.4735-53.6391C51.4119-53.6391 49.9302-52.2091 49.9302-50.2404C49.9302-49.1631 50.3653-48.3964 51.0803-47.6296L67.1981-32.1329C68.1719-31.1591 69.0009-30.8275 70.0265-30.8275C71.0108-30.8275 71.8398-31.1591 72.8654-32.1329L88.9209-47.6296C89.6876-48.3964 90.071-49.1631 90.071-50.2404C90.071-52.2091 88.5269-53.6391 86.5277-53.6391C85.5951-53.6391 84.5485-53.2557 83.8852-52.4889L76.3152-44.4426L70.0265-37.7293L63.6859-44.4426L56.1677-52.4889C55.4527-53.2557 54.4061-53.6391 53.4735-53.6391ZM70.0265-96.055C67.9026-96.055 66.162-94.3145 66.162-92.2835L66.162-48.8401L66.7313-35.7204C66.8348-33.9176 68.2236-32.4253 70.0265-32.4253C71.7881-32.4253 73.2286-33.9176 73.2804-35.7204L73.9014-48.8401L73.9014-92.2835C73.9014-94.3145 72.1092-96.055 70.0265-96.055Z"/>
  </g>
</svg>