<?xml version="1.0" encoding="utf-8"?>
<svg xmlns="http://www.w3.org/2000/svg" viewBox="0 0 127 127">
  <path d="M 76.565 37.729 L 76.565 44.578 L 85.069 44.578 C 88.633 44.578 91.384 45.773 93.804 48.815 L 111.926 71.626 C 112.703 72.694 112.361 74.083 110.817 74.083 L 78.559 74.083 C 76.071 74.083 74.837 76.01 74.837 78.032 L 74.837 78.199 C 74.837 83.877 70.439 89.858 63.521 89.858 C 56.612 89.858 52.163 83.877 52.163 78.199 L 52.163 78.032 C 52.163 76.01 50.981 74.083 48.441 74.083 L 16.245 74.083 C 14.649 74.083 14.307 72.694 15.136 71.626 L 33.248 48.815 C 35.667 45.773 38.367 44.578 41.931 44.578 L 50.486 44.578 L 50.486 37.729 L 42.491 37.729 C 33.849 37.729 31.316 39.834 25.591 46.877 L 8.744 67.74 C 6.588 70.436 5.955 72.623 5.955 77.009 L 5.955 105.909 C 5.955 115.986 11.093 121.072 21.273 121.072 L 105.727 121.072 C 115.959 121.072 121.045 115.965 121.045 105.909 L 121.045 77.009 C 121.045 72.623 120.464 70.436 118.307 67.74 L 101.409 46.877 C 95.684 39.834 93.202 37.729 84.509 37.729 L 76.565 37.729 Z M 21.398 113.167 C 16.521 113.167 13.809 110.609 13.809 105.526 L 13.809 81.242 L 44.754 81.242 C 45.955 90.362 53.617 97.07 63.521 97.07 C 73.435 97.07 81.045 90.341 82.246 81.242 L 113.191 81.242 L 113.191 105.526 C 113.191 110.609 110.436 113.167 105.602 113.167 L 21.398 113.167 Z M 46.968 28.749 C 47.9 28.749 48.947 28.355 49.662 27.589 L 57.18 19.542 L 63.521 12.788 L 69.809 19.542 L 77.379 27.589 C 78.043 28.355 79.089 28.749 80.022 28.749 C 82.021 28.749 83.565 27.309 83.565 25.299 C 83.565 24.263 83.182 23.496 82.415 22.729 L 66.36 7.233 C 65.334 6.259 64.505 5.927 63.521 5.927 C 62.495 5.927 61.666 6.259 60.692 7.233 L 44.574 22.729 C 43.859 23.496 43.424 24.263 43.424 25.299 C 43.424 27.309 44.906 28.749 46.968 28.749 Z M 63.521 72.49 C 65.603 72.49 67.396 70.749 67.396 68.729 L 67.396 23.94 L 66.775 10.768 C 66.723 9.017 65.282 7.525 63.521 7.525 C 61.718 7.525 60.329 9.017 60.225 10.768 L 59.656 23.94 L 59.656 68.729 C 59.656 70.749 61.397 72.49 63.521 72.49 Z" style="stroke-width: 1; fill: rgb(255, 255, 255);"/>
</svg>